<?xml version="1.0" encoding="UTF-8"?>
<svg id="Ebene_1" data-name="Ebene 1" xmlns="http://www.w3.org/2000/svg" version="1.1" viewBox="0 0 48 48">
  <defs>
    <style>
      .cls-1 {
        fill: #64b768;
      }

      .cls-1, .cls-2 {
        stroke-width: 0px;
      }

      .cls-2 {
        fill: #1f1f1f;
      }
    </style>
  </defs>
  <path class="cls-1" d="M11.59,27.08c-2.11-.6-3.92-1.69-5.23-3.47-2.13-2.89-2.58-6.06-1.21-9.38,1.37-3.3,3.94-5.21,7.47-5.73.9-.13,1.84.03,2.76.02.2,0,.47-.08.59-.22,4.35-5.17,11.91-5.18,16.27-.02.18.22.35.3.64.25,5.67-.89,10.76,3.31,10.96,9.04.15,4.23-2.65,8.13-6.71,9.34-.15.04-.3.09-.45.14-.43.08-.86.16-1.28.24-.95-.05-1.91-.08-2.86-.17-.46-.04-.67-.38-.59-.74.09-.37.38-.49.84-.46.93.05,1.89.16,2.8.04,3.63-.49,6.58-3.55,6.95-7.1.39-3.87-1.72-7.38-5.26-8.7-1.28-.48-2.6-.63-3.95-.45.3.78.64,1.51.85,2.27.21.8.31,1.63.42,2.45.06.45-.18.75-.55.79-.36.04-.62-.21-.68-.67-.02-.12-.02-.25-.03-.37-.39-4.77-4.22-8.4-8.99-8.52-5.03-.13-9.21,3.74-9.48,8.76-.03.53-.26.82-.65.81-.39-.02-.61-.32-.58-.86.07-1.48.45-2.87,1.11-4.19.07-.14.13-.29.26-.57-.95.06-1.79.04-2.6.17-3.68.6-6.53,3.8-6.76,7.53-.24,3.77,2.18,7.29,5.75,8.39,1.2.37,2.42.48,3.67.29.11-.02.22-.03.33-.04.43-.04.73.15.76.51.04.42-.21.67-.6.7-.92.07-1.84.09-2.77.13-.4-.07-.81-.15-1.21-.22Z"/>
  <path class="cls-2" d="M11.59,27.08c.4.07.81.15,1.21.22,0,3.56,0,7.12,0,10.68,0,.42.1.63.58.63,7.15-.01,14.3,0,21.46,0,.43,0,.58-.16.57-.58-.01-3.58-.01-7.15-.01-10.73.43-.08.86-.16,1.28-.24,0,1.88.02,3.77.02,5.65,0,3.34,0,6.68,0,10.03,0,1.04-.17,1.22-1.19,1.22-7.61,0-15.22,0-22.83,0-.92,0-1.1-.18-1.1-1.1,0-5.05,0-10.1,0-15.16,0-.2,0-.41.01-.61ZM24.06,42.65c1.21,0,2.42,0,3.62,0,2.32,0,4.64,0,6.96,0,.75,0,.75,0,.75-.77,0-.39,0-.78,0-1.18q0-.8-.81-.8c-7,0-13.99,0-20.99,0-.09,0-.19,0-.28,0-.39-.03-.53.16-.52.53.02.5,0,1,0,1.51,0,.69.01.71.72.71,3.51,0,7.03,0,10.54,0Z"/>
</svg>